<?xml version="1.0" standalone="no"?>
<!DOCTYPE svg PUBLIC "-//W3C//DTD SVG 20010904//EN"
 "http://www.w3.org/TR/2001/REC-SVG-20010904/DTD/svg10.dtd">
<svg version="1.0" xmlns="http://www.w3.org/2000/svg"
 width="545.000000pt" height="560.000000pt" viewBox="0 0 545.000000 560.000000"
 preserveAspectRatio="xMidYMid meet">
<metadata>
Created by potrace 1.16, written by Peter Selinger 2001-2019
</metadata>
<g transform="translate(0.000000,560.000000) scale(0.100000,-0.100000)"
fill="#053E5F" stroke="none">
<path d="M2425 5459 c-436 -44 -858 -196 -1221 -438 -181 -121 -316 -233 -453
-377 -394 -412 -635 -906 -723 -1479 -28 -187 -31 -550 -5 -730 91 -617 339
-1119 766 -1545 233 -233 433 -377 716 -515 386 -189 755 -275 1185 -275 444
0 846 97 1237 300 257 133 450 275 668 494 672 673 933 1641 694 2571 -117
453 -366 885 -703 1220 -416 414 -916 666 -1501 756 -150 24 -512 33 -660 18z
m285 -2326 l0 -237 30 47 c32 51 93 100 147 118 19 6 67 9 107 7 92 -4 143
-34 177 -105 23 -47 24 -56 27 -340 3 -290 3 -293 -17 -293 -21 0 -21 4 -21
283 0 274 -1 284 -22 327 -28 55 -62 80 -123 91 -94 18 -188 -23 -246 -107
-53 -78 -59 -113 -59 -366 0 -213 -1 -229 -17 -226 -17 3 -18 36 -21 508 -1
278 0 511 3 518 2 6 11 12 20 12 13 0 15 -31 15 -237z m-1545 -300 c98 -263
180 -484 183 -491 3 -10 -19 -12 -103 -10 l-108 3 -32 95 -32 95 -179 3 -180
2 -32 -100 -33 -100 -105 0 c-57 0 -104 3 -104 7 0 5 150 412 351 951 8 21 14
22 102 22 l94 0 178 -477z m675 143 l0 -94 -74 -4 c-56 -2 -82 -9 -103 -24
l-28 -21 -5 -249 -5 -249 -97 -3 -98 -3 0 366 0 366 93 -3 92 -3 5 -38 5 -39
22 29 c29 41 78 63 141 63 l52 0 0 -94z m497 79 c95 -28 172 -120 187 -222 l6
-43 -90 0 c-78 0 -91 3 -96 18 -26 81 -53 105 -120 106 -52 1 -91 -25 -118
-78 -14 -30 -18 -60 -18 -141 0 -155 38 -217 136 -217 57 0 93 22 112 68 l14
34 90 0 c50 0 90 -4 90 -8 0 -36 -36 -116 -70 -154 -60 -69 -123 -93 -240 -92
-79 0 -103 4 -144 24 -96 46 -155 132 -177 255 -37 215 50 399 213 450 58 18
163 18 225 0z m2367 3 c57 -17 138 -99 159 -162 9 -27 20 -77 23 -112 l7 -64
-278 0 -278 0 6 -66 c16 -173 132 -294 282 -294 82 0 124 14 174 56 33 29 45
34 54 25 9 -10 2 -21 -31 -51 -115 -103 -320 -90 -423 27 -99 113 -125 315
-60 466 27 63 96 135 156 163 57 27 142 32 209 12z m-1224 -363 c0 -358 0
-365 -20 -365 -20 0 -20 7 -20 365 0 358 0 365 20 365 20 0 20 -7 20 -365z
m316 36 c71 -182 131 -327 134 -325 3 3 61 150 130 327 110 281 129 322 148
325 22 3 22 2 9 -30 -7 -18 -72 -183 -142 -366 -112 -288 -132 -332 -149 -330
-15 2 -47 74 -157 358 -76 195 -138 358 -139 363 0 4 8 7 19 7 15 0 42 -61
147 -329z"/>
<path d="M832 2882 l-60 -182 119 0 c65 0 119 3 119 8 0 4 -26 86 -58 182
l-59 175 -61 -183z"/>
<path d="M4562 3028 c-81 -14 -144 -68 -186 -158 -14 -30 -26 -67 -26 -82 l0
-28 251 0 251 0 -7 45 c-23 156 -140 248 -283 223z"/>
</g>
</svg>
